<svg width="600" height="153" viewBox="0 0 600 153" fill="none" xmlns="http://www.w3.org/2000/svg">
<g clip-path="url(#clip0_71_1363)">
<path d="M75.619 0C33.8625 0 0 34.0609 0 76.0621C0 112.169 25.0148 142.404 58.5671 150.183V108.898L27.4164 76.0043L62.4739 95.2597V150.98C66.3232 151.662 70.2645 152.043 74.2862 152.113V76.0043H123.822L93.5557 108.794V149.974C126.66 141.872 151.238 111.857 151.238 76.0621C151.25 34.0609 117.387 0 75.619 0ZM104.782 69.3008H101.634V56.3213H77.3311V69.3008H74.2862V56.3213H43.2158L39.964 43.3419H74.2862V16.7473H77.3311V43.3419H111.274L104.782 69.2892V69.3008Z" fill="#FFE927"/>
<path d="M235.739 71.6933H220.227V124.536H198.831V71.6933H188.134V57.3038H198.831V50.9817C198.831 34.9856 208.058 26.2363 225.03 26.2363C228.776 26.2363 232.384 26.6409 235.727 27.4499V42.9143C233.452 42.5098 231.177 42.2439 229.178 42.2439C223.295 42.2439 220.215 45.4686 220.215 51.5249V57.3038H235.727V71.6933H235.739Z" fill="#F8F8F8"/>
<path d="M264.614 124.536H243.093V27.0454H264.614V124.536Z" fill="#F8F8F8"/>
<path d="M274.37 150.888V135.019C278.38 135.562 279.989 135.689 281.862 135.689C288.952 135.689 292.824 133.135 294.697 126.951L295.628 124.131L270.096 57.3037H293.353L305.119 98.1838C305.923 101.004 306.325 103.154 306.59 105.985H306.992C307.13 103.697 307.658 101.547 308.6 98.1838L319.424 57.3037H340.946L317.011 127.494C311.128 144.981 300.971 151.697 283.195 151.697C281.184 151.697 277.852 151.292 274.37 150.888Z" fill="#F8F8F8"/>
<path d="M340.671 90.9138C340.671 69.0002 354.172 55.6855 376.096 55.6855C393.607 55.6855 405.236 64.2961 407.775 79.4831L387.586 83.6555C386.38 75.7153 382.105 71.5545 375.556 71.5545C367.398 71.5545 362.457 78.5469 362.457 90.2435C362.457 102.888 367.271 110.146 375.694 110.146C382.381 110.146 386.518 105.708 387.724 97.6405L407.775 102.079C405.374 116.873 392.941 126.154 375.82 126.154C354.701 126.154 340.659 112.307 340.659 90.9254L340.671 90.9138Z" fill="#F8F8F8"/>
<path d="M410.441 90.7867C410.441 67.6595 425.414 55.6855 445.062 55.6855C464.711 55.6855 479.821 67.6479 479.821 90.7867C479.821 113.925 464.849 126.154 445.062 126.154C425.276 126.154 410.441 113.914 410.441 90.7867ZM458.437 90.7867C458.437 76.9404 453.496 70.6183 445.074 70.6183C436.651 70.6183 431.837 76.9404 431.837 90.7867C431.837 104.633 436.778 111.221 445.074 111.221C453.37 111.221 458.437 104.494 458.437 90.7867Z" fill="#F8F8F8"/>
<path d="M530.493 55.6856H531.826V76.2586C530.493 76.1199 529.425 76.1199 527.816 76.1199C522.071 76.1199 517.785 77.5993 514.843 80.1536C510.569 84.1873 509.5 90.2436 509.5 97.0974V124.524H487.979V57.2922H508.167V74.6405C511.637 62.5394 518.991 55.6741 530.493 55.6741V55.6856Z" fill="#F8F8F8"/>
<path d="M600 95.7566H553.613C553.751 104.899 560.025 110.678 568.987 110.678C575.537 110.678 580.489 107.453 583.557 101.27L599.334 108.528C593.991 119.554 582.627 126.142 568.723 126.142C546.661 126.142 533.298 113.371 533.298 91.5842C533.298 69.7977 546.397 55.6855 567.252 55.6855C588.108 55.6855 600 67.9253 600 89.3073V95.7566ZM579.283 83.1123C579.283 73.5655 574.871 68.457 566.85 68.457C558.83 68.457 553.877 74.1087 553.613 83.6555H579.283V83.1123Z" fill="#F8F8F8"/>
</g>
<defs>
<clipPath id="clip0_71_1363">
<rect width="600" height="152.113" fill="white"/>
</clipPath>
</defs>
</svg>
